# xmcd
# 
# Track frame offsets:
#     150
#     14910
#     28295
#     44730
#     62501
#     77032
#     94417
#     113716
#     127470
#     141015
#     161481
#     176187
#     195169
#     209857
#     222432
# 
# Disc length: 3125
# 
# Revision: 2
# Processed by: cddbd v1.5.2PL0 Copyright (c) Steve Scherf et al.
# Submitted via: fre:ac v1.0.17
# 
DISCID=ef0c330f
DTITLE=Nanette Workman - Danser Danser
DYEAR=2003
DGENRE=Disco
TTITLE0=Lady Marmelade (Crewe-Nolan-QWorkman-Finaldi) (1975)
TTITLE1=Danser Danser (Finaldi-Workman) (1975)
TTITLE2=Donne Donne (Finaldi-Workman-Berthiaume) (1976)
TTITLE3=Call Girl (Plamondon-Gauthier) (1982)
TTITLE4=Compte Sur Moi (Finaldi-Workman-Martin) (1976)
TTITLE5=Ce Soir On M'invite (Finaldi-Workman-Martin) (1976)
TTITLE6=Pas Fou (Finaldi-Workman-Plamondon) (1975)
TTITLE7=J'ai Le Gout De Baiser (Finaldi-Workman-Thurston) (1976)
TTITLE8=Baby Boom (Finaldi-Workman) (1975)
TTITLE9=Ce Soir On Danse A Naziland (Plamondon-Berger) (1978)
TTITLE10=Docteur (Sayes-Snow-Barthiaume) (1978)
TTITLE11=Lâche-Moi (Finaldi-Workman) (1975)
TTITLE12=Quelqu'un Qui M'exite (Finaldi-Workman-Thurston) (1976)
TTITLE13=Toutes Mes Journées Défoncées (Finaldi-Workman-Thurston) (1976)
TTITLE14=Super Lady
EXTD=YEAR: 2003
EXTT0=
EXTT1=
EXTT2=
EXTT3=
EXTT4=
EXTT5=
EXTT6=
EXTT7=
EXTT8=
EXTT9=
EXTT10=
EXTT11=
EXTT12=
EXTT13=
EXTT14=
PLAYORDER=
